<svg xmlns="http://www.w3.org/2000/svg" viewBox="0 0 520 260" role="img" aria-label="White Mercedes Sprinter, registration HC04 XTL"><defs><linearGradient id="bg" x1="0" y1="0" x2="1" y2="1"><stop stop-color="#edf7fc"/><stop offset="1" stop-color="#ffffff"/></linearGradient><filter id="s"><feDropShadow dx="0" dy="5" stdDeviation="5" flood-opacity=".16"/></filter></defs><rect width="520" height="260" rx="24" fill="url(#bg)"/><ellipse cx="270" cy="193" rx="210" ry="18" fill="#dce5eb"/><path d="M74 103q8-34 44-43h205q31 1 50 30l48 49v36H74z" fill="#fff" stroke="#bcc7d0" stroke-width="3"/><path d="M126 71h190q22 1 36 25H116z" fill="#b9d7e8"/><path d="M359 99l44 42h-44z" fill="#b9d7e8"/><rect x="91" y="145" width="304" height="10" rx="5" fill="#273946"/><g filter="url(#s)"><circle cx="145" cy="177" r="28" fill="#263742"/><circle cx="145" cy="177" r="13" fill="#bac5cc"/><circle cx="377" cy="177" r="28" fill="#263742"/><circle cx="377" cy="177" r="13" fill="#bac5cc"/></g><rect x="207" y="204" width="106" height="25" rx="5" fill="#f3dc55" stroke="#222"/><text x="260" y="222" text-anchor="middle" font-family="Arial,sans-serif" font-size="15" font-weight="700" fill="#111">HC04 XTL</text><text x="260" y="247" text-anchor="middle" font-family="Arial,sans-serif" font-size="15" font-weight="700" fill="#23445a">Mercedes Sprinter · White</text></svg>