<svg xmlns="http://www.w3.org/2000/svg" viewBox="0 0 520 260" role="img" aria-label="White DAF 45 160, registration MX10 AYH"><defs><linearGradient id="bg" x1="0" y1="0" x2="1" y2="1"><stop stop-color="#edf7fc"/><stop offset="1" stop-color="#ffffff"/></linearGradient><filter id="s"><feDropShadow dx="0" dy="5" stdDeviation="5" flood-opacity=".16"/></filter></defs><rect width="520" height="260" rx="24" fill="url(#bg)"/><ellipse cx="270" cy="193" rx="210" ry="18" fill="#dce5eb"/><path d="M80 88h248v88H80z" fill="#f7f8fa" stroke="#bcc7d0" stroke-width="3"/><path d="M328 108h92l42 42v26H328z" fill="#fff" stroke="#bcc7d0" stroke-width="3"/><path d="M350 118h58l28 30h-86z" fill="#b9d7e8"/><rect x="95" y="102" width="210" height="8" rx="4" fill="#d9e1e7"/><rect x="338" y="156" width="110" height="10" rx="5" fill="#283a48"/><g filter="url(#s)"><circle cx="145" cy="177" r="28" fill="#263742"/><circle cx="145" cy="177" r="13" fill="#bac5cc"/><circle cx="377" cy="177" r="28" fill="#263742"/><circle cx="377" cy="177" r="13" fill="#bac5cc"/></g><rect x="207" y="204" width="106" height="25" rx="5" fill="#f3dc55" stroke="#222"/><text x="260" y="222" text-anchor="middle" font-family="Arial,sans-serif" font-size="15" font-weight="700" fill="#111">MX10 AYH</text><text x="260" y="247" text-anchor="middle" font-family="Arial,sans-serif" font-size="15" font-weight="700" fill="#23445a">DAF 45 160 · White</text></svg>