<svg xmlns="http://www.w3.org/2000/svg" viewBox="0 0 520 260" role="img" aria-label="White Ford Transit Mk8, registration SC16 LVY"><defs><linearGradient id="bg" x1="0" y1="0" x2="1" y2="1"><stop stop-color="#edf7fc"/><stop offset="1" stop-color="#ffffff"/></linearGradient><filter id="s"><feDropShadow dx="0" dy="5" stdDeviation="5" flood-opacity=".16"/></filter></defs><rect width="520" height="260" rx="24" fill="url(#bg)"/><ellipse cx="270" cy="193" rx="210" ry="18" fill="#dce5eb"/><path d="M70 106q8-32 40-44h197q36 1 57 31l58 47v35H70z" fill="#fff" stroke="#bcc7d0" stroke-width="3"/><path d="M116 73h184q26 1 42 25H105z" fill="#b9d7e8"/><path d="M351 101l45 39h-45z" fill="#b9d7e8"/><path d="M82 151h328" stroke="#273946" stroke-width="10"/><path d="M73 126h40" stroke="#f0c94e" stroke-width="5"/><g filter="url(#s)"><circle cx="145" cy="177" r="28" fill="#263742"/><circle cx="145" cy="177" r="13" fill="#bac5cc"/><circle cx="377" cy="177" r="28" fill="#263742"/><circle cx="377" cy="177" r="13" fill="#bac5cc"/></g><rect x="207" y="204" width="106" height="25" rx="5" fill="#f3dc55" stroke="#222"/><text x="260" y="222" text-anchor="middle" font-family="Arial,sans-serif" font-size="15" font-weight="700" fill="#111">SC16 LVY</text><text x="260" y="247" text-anchor="middle" font-family="Arial,sans-serif" font-size="15" font-weight="700" fill="#23445a">Ford Transit Mk8 · White</text></svg>