<svg xmlns="http://www.w3.org/2000/svg" viewBox="0 0 520 260" role="img" aria-label="White Ford Transit Mk7, registration YT60 XTR"><defs><linearGradient id="bg" x1="0" y1="0" x2="1" y2="1"><stop stop-color="#edf7fc"/><stop offset="1" stop-color="#ffffff"/></linearGradient><filter id="s"><feDropShadow dx="0" dy="5" stdDeviation="5" flood-opacity=".16"/></filter></defs><rect width="520" height="260" rx="24" fill="url(#bg)"/><ellipse cx="270" cy="193" rx="210" ry="18" fill="#dce5eb"/><path d="M72 105q7-30 39-42h194q39 2 58 32l55 44v36H72z" fill="#fff" stroke="#bcc7d0" stroke-width="3"/><path d="M116 74h181q28 1 42 25H105z" fill="#b9d7e8"/><path d="M348 103l43 36h-43z" fill="#b9d7e8"/><path d="M83 150h323" stroke="#273946" stroke-width="10"/><g filter="url(#s)"><circle cx="145" cy="177" r="28" fill="#263742"/><circle cx="145" cy="177" r="13" fill="#bac5cc"/><circle cx="377" cy="177" r="28" fill="#263742"/><circle cx="377" cy="177" r="13" fill="#bac5cc"/></g><rect x="207" y="204" width="106" height="25" rx="5" fill="#f3dc55" stroke="#222"/><text x="260" y="222" text-anchor="middle" font-family="Arial,sans-serif" font-size="15" font-weight="700" fill="#111">YT60 XTR</text><text x="260" y="247" text-anchor="middle" font-family="Arial,sans-serif" font-size="15" font-weight="700" fill="#23445a">Ford Transit Mk7 · White</text></svg>